<svg xmlns="http://www.w3.org/2000/svg" version="1.1" xmlns:xlink="http://www.w3.org/1999/xlink" xmlns:svgjs="http://svgjs.dev/svgjs" width="1000" height="199" viewBox="0 0 1000 199"><g transform="matrix(1,0,0,1,-0.6060606060606233,0.46508793105290636)"><svg viewBox="0 0 396 79" data-background-color="#0098ff" preserveAspectRatio="xMidYMid meet" height="199" width="1000" xmlns="http://www.w3.org/2000/svg" xmlns:xlink="http://www.w3.org/1999/xlink"><defs></defs><g id="tight-bounds" transform="matrix(1,0,0,1,0.2400000000000091,-0.1846328972521576)"><svg viewBox="0 0 395.52 79.36926579450432" height="79.36926579450432" width="395.52"><g><svg viewBox="0 0 509.5655705136729 102.25486753091612" height="79.36926579450432" width="395.52"><g transform="matrix(1,0,0,1,0,14.132185020553536)"><svg viewBox="0 0 395.52 73.99049748980904" height="73.99049748980904" width="395.52"><g><svg viewBox="0 0 395.52 73.99049748980904" height="73.99049748980904" width="395.52"><g><svg viewBox="0 0 395.52 73.99049748980904" height="73.99049748980904" width="395.52"><g transform="matrix(1,0,0,1,0,0)"><svg width="395.52" viewBox="1.5899996757507324 -38.840003967285156 227.57998657226562 39.570003509521484" height="73.99049748980904" data-palette-color="#ffffff"><svg></svg><g class="undefined-text-0" data-fill-palette-color="primary" id="text-0"><path d="M6.2-0.17v0c-0.6 0.44-1.287 0.66-2.06 0.66-0.773 0-1.393-0.2-1.86-0.6-0.46-0.4-0.69-0.86-0.69-1.38 0-0.52 0.08-0.903 0.24-1.15v0c0.473 0.28 1.217 0.42 2.23 0.42 1.02 0 1.863-0.693 2.53-2.08v0-11.72c0-0.76-0.163-1.327-0.49-1.7v0c-0.487-0.587-1.317-1.167-2.49-1.74v0c1.193-0.567 1.943-1.037 2.25-1.41v0c0.487-0.62 0.73-1.313 0.73-2.08v0-10.3c-0.553-1.253-1.553-1.88-3-1.88v0c-0.553 0-1.01 0.137-1.37 0.41v0c-0.18-0.24-0.27-0.523-0.27-0.85 0-0.327 0.083-0.627 0.25-0.9 0.16-0.28 0.37-0.527 0.63-0.74v0c0.573-0.42 1.343-0.63 2.31-0.63 0.967 0 1.793 0.267 2.48 0.8v0c0.453-0.533 1.08-0.8 1.88-0.8 0.793 0 1.437 0.277 1.93 0.83v0c0.467-0.553 0.95-0.83 1.45-0.83 0.493 0 0.867 0.047 1.12 0.14 0.253 0.1 0.47 0.233 0.65 0.4v0c0.26 0.207 0.553 0.62 0.88 1.24v0l15.13 27.27v-7.45c0-0.713-0.153-1.24-0.46-1.58v0c-0.473-0.507-1.31-1.053-2.51-1.64v0c1.12-0.553 1.843-1 2.17-1.34v0c0.533-0.573 0.8-1.21 0.8-1.91v0-10.22c-0.373-0.687-0.833-1.227-1.38-1.62-0.54-0.387-1.157-0.58-1.85-0.58-0.693 0-1.277 0.137-1.75 0.41v0c-0.173-0.293-0.26-0.697-0.26-1.21 0-0.507 0.25-0.953 0.75-1.34 0.507-0.38 1.167-0.57 1.98-0.57 0.813 0 1.537 0.21 2.17 0.63v0c0.573-0.42 1.23-0.63 1.97-0.63 0.74 0 1.393 0.22 1.96 0.66v0c0.64-0.44 1.34-0.66 2.1-0.66 0.767 0 1.383 0.2 1.85 0.6 0.46 0.393 0.69 0.853 0.69 1.38 0 0.52-0.08 0.9-0.24 1.14v0c-0.473-0.273-1.23-0.41-2.27-0.41-1.047 0-1.877 0.7-2.49 2.1v0 10.32c0 0.7 0.147 1.213 0.44 1.54v0c0.487 0.54 1.333 1.11 2.54 1.71v0c-1.32 0.72-2.11 1.217-2.37 1.49v0c-0.407 0.44-0.61 1.017-0.61 1.73v0l0.44 12.41c0.587 1.073 1.503 1.61 2.75 1.61v0c0.56 0 1.017-0.14 1.37-0.42v0c0.18 0.247 0.27 0.533 0.27 0.86 0 0.327-0.08 0.627-0.24 0.9-0.167 0.28-0.38 0.523-0.64 0.73v0c-0.567 0.427-1.257 0.64-2.07 0.64-0.813 0-1.547-0.163-2.2-0.49v0c-1.287 0.733-2.597 0.677-3.93-0.17v0c-0.52 0.44-1.017 0.66-1.49 0.66-0.473 0-0.823-0.04-1.05-0.12-0.227-0.087-0.44-0.233-0.64-0.44v0c-0.307-0.313-0.787-1.087-1.44-2.32v0l-15.01-25.88v23.97c0.667 1.387 1.513 2.08 2.54 2.08 1.027 0 1.773-0.14 2.24-0.42v0c0.18 0.293 0.27 0.697 0.27 1.21 0 0.513-0.25 0.96-0.75 1.34-0.507 0.387-1.16 0.58-1.96 0.58-0.793 0-1.523-0.203-2.19-0.61v0c-0.587 0.407-1.26 0.61-2.02 0.61-0.753 0-1.4-0.22-1.94-0.66zM15.16-24.24l10.13 17.77c0.113-0.147 0.17-0.38 0.17-0.7 0-0.313-0.043-0.67-0.13-1.07-0.087-0.4-0.213-0.827-0.38-1.28v0c-0.34-0.913-0.787-1.89-1.34-2.93v0l-10.35-18.07c-0.113 0.18-0.17 0.507-0.17 0.98v0c0 1.007 0.69 2.773 2.07 5.3zM49.02-3.61c-1.347-1.4-2.44-3.087-3.28-5.06-0.84-1.967-1.357-3.83-1.55-5.59-0.193-1.753-0.49-2.97-0.89-3.65-0.4-0.673-0.967-1.19-1.7-1.55v0c1.42-0.667 2.253-2.037 2.5-4.11 0.253-2.073 0.83-4.013 1.73-5.82 0.893-1.807 2.03-3.353 3.41-4.64v0c2.913-2.707 6.423-4.06 10.53-4.06v0c4.213 0 7.703 1.253 10.47 3.76v0c2.88 2.607 4.573 6.253 5.08 10.94v0c0.207 1.953 1.037 3.263 2.49 3.93v0c-1.42 0.7-2.26 2.183-2.52 4.45-0.26 2.26-0.773 4.373-1.54 6.34-0.76 1.973-1.783 3.66-3.07 5.06v0c-2.687 2.893-6.317 4.34-10.89 4.34v0c-4.38 0-7.97-1.447-10.77-4.34zM57.01-19.46v0c-1.793 0.867-2.69 2.277-2.69 4.23v0 7.25c0 2.653 1.1 4.353 3.3 5.1v0c0.647 0.227 1.353 0.34 2.12 0.34 0.767 0 1.47-0.113 2.11-0.34 0.647-0.227 1.207-0.57 1.68-1.03v0c0.973-0.94 1.46-2.297 1.46-4.07v0-7.25c0-1.953-0.88-3.363-2.64-4.23v0c1.76-0.813 2.64-2.123 2.64-3.93v0-5.83c0-1.807-0.53-3.217-1.59-4.23v0c-0.993-0.927-2.22-1.39-3.68-1.39v0c-2.493 0-4.153 1.043-4.98 3.13v0c-0.28 0.7-0.42 1.53-0.42 2.49v0 5.83c0 1.84 0.897 3.15 2.69 3.93zM67.24-30.52v0c0.453 1.367 0.68 3.72 0.68 7.06v0c0 1.887-0.08 2.92-0.24 3.1-0.167 0.18-0.33 0.327-0.49 0.44v0c-0.293 0.193-0.61 0.347-0.95 0.46v0c0.973 0.44 1.483 0.863 1.53 1.27v0c0.167 1.593 0.25 2.973 0.25 4.14 0 1.167-0.017 2.103-0.05 2.81-0.033 0.707-0.083 1.36-0.15 1.96v0c-0.127 1.287-0.29 2.223-0.49 2.81v0c1.273-0.393 1.983-2.273 2.13-5.64v0c0.08-1.887 0.12-3.99 0.12-6.31 0-2.32-0.023-4.063-0.07-5.23-0.053-1.16-0.127-2.113-0.22-2.86v0c-0.2-1.727-0.607-2.923-1.22-3.59v0c-0.18-0.2-0.457-0.34-0.83-0.42zM49.63-6.47v0c0.247-0.1 0.37-0.27 0.37-0.51v0c0-0.36-0.17-0.923-0.51-1.69v0c-0.867-1.967-1.3-5.563-1.3-10.79v0c0-3.807 0.457-7.043 1.37-9.71v0c0.113-0.413 0.17-0.723 0.17-0.93 0-0.213-0.107-0.353-0.32-0.42v0c-0.76 0.96-1.303 1.913-1.63 2.86v0c-0.6 1.727-1.08 4.063-1.44 7.01v0c-0.053 0.42-0.533 0.817-1.44 1.19v0c0.907 0.407 1.387 0.823 1.44 1.25v0c0.587 5.047 1.333 8.413 2.24 10.1v0c0.313 0.607 0.663 1.153 1.05 1.64zM100.2-0.32v0c-0.847 0.54-1.787 0.81-2.82 0.81-1.033 0-1.99-0.27-2.87-0.81v0c-0.9 0.54-1.723 0.81-2.47 0.81-0.747 0-1.35-0.06-1.81-0.18-0.453-0.127-0.85-0.297-1.19-0.51v0c-0.7-0.42-1.05-0.947-1.05-1.58v0c0-0.327 0.09-0.613 0.27-0.86v0c0.353 0.28 0.83 0.42 1.43 0.42 0.593 0 1.193-0.157 1.8-0.47 0.613-0.307 1.073-0.787 1.38-1.44v0-11.89c0-0.747-0.153-1.3-0.46-1.66v0c-0.493-0.6-1.333-1.193-2.52-1.78v0c1.107-0.5 1.823-0.947 2.15-1.34v0c0.553-0.633 0.83-1.35 0.83-2.15v0-11.33c-0.533-0.193-1.173-0.29-1.92-0.29-0.74 0-1.517 0.197-2.33 0.59-0.813 0.387-1.543 0.953-2.19 1.7v0c-1.453 1.693-2.18 3.91-2.18 6.65v0c0 1.573 0.26 2.737 0.78 3.49v0c-0.193 0.407-0.557 0.61-1.09 0.61-0.54 0-1.02-0.123-1.44-0.37-0.427-0.247-0.793-0.58-1.1-1v0c-0.64-0.847-0.96-1.757-0.96-2.73 0-0.98 0.18-1.813 0.54-2.5v0c-0.6-0.713-0.9-1.52-0.9-2.42 0-0.907 0.243-1.653 0.73-2.24v0c-0.68-0.733-1.02-1.717-1.02-2.95v0c0-1.433 0.657-2.393 1.97-2.88v0c0.393-0.147 0.737-0.22 1.03-0.22v0c0.553 0 0.967 0.12 1.24 0.36v0c-0.113 0.393-0.17 0.67-0.17 0.83v0c0 0.653 0.23 0.98 0.69 0.98v0c0.24 0 0.49-0.033 0.75-0.1v0l1.1-0.31c1.907-0.507 3.493-0.76 4.76-0.76 1.273 0 2.39 0.277 3.35 0.83v0c0.827-0.553 1.77-0.83 2.83-0.83 1.06 0 2.02 0.277 2.88 0.83v0c0.927-0.553 1.887-0.83 2.88-0.83v0c1.58 0 2.963 0.163 4.15 0.49v0l2.17 0.58c0.26 0.067 0.513 0.1 0.76 0.1v0c0.453 0 0.68-0.327 0.68-0.98v0c0-0.16-0.057-0.437-0.17-0.83v0c0.28-0.24 0.63-0.36 1.05-0.36 0.427 0 0.833 0.073 1.22 0.22 0.393 0.147 0.737 0.357 1.03 0.63v0c0.633 0.573 0.95 1.393 0.95 2.46 0 1.06-0.34 1.973-1.02 2.74v0c0.487 0.587 0.73 1.327 0.73 2.22 0 0.9-0.31 1.713-0.93 2.44v0c0.373 0.673 0.56 1.343 0.56 2.01 0 0.667-0.08 1.267-0.24 1.8-0.167 0.54-0.403 1.013-0.71 1.42v0c-0.667 0.913-1.503 1.37-2.51 1.37v0c-0.553 0-0.93-0.203-1.13-0.61v0c0.52-0.753 0.78-1.88 0.78-3.38 0-1.507-0.197-2.82-0.59-3.94-0.4-1.113-0.927-2.053-1.58-2.82v0c-1.32-1.527-2.873-2.29-4.66-2.29v0c-0.687 0-1.28 0.097-1.78 0.29v0 11.33c0 0.8 0.17 1.393 0.51 1.78v0c0.533 0.64 1.353 1.21 2.46 1.71v0c-1.187 0.587-1.943 1.067-2.27 1.44v0c-0.467 0.587-0.7 1.253-0.7 2v0 11.89c0.287 0.653 0.737 1.133 1.35 1.44 0.613 0.313 1.22 0.47 1.82 0.47 0.6 0 1.08-0.14 1.44-0.42v0c0.18 0.247 0.27 0.53 0.27 0.85 0 0.313-0.093 0.61-0.28 0.89-0.187 0.273-0.443 0.507-0.77 0.7v0c-0.747 0.46-1.623 0.69-2.63 0.69-1 0-1.953-0.27-2.86-0.81zM95.21-9.64v3.17c0.82-0.307 1.27-1.373 1.35-3.2v0c0.093-1.82 0.14-4.343 0.14-7.57 0-3.22-0.003-5.363-0.01-6.43-0.007-1.067-0.017-1.927-0.03-2.58v0c-0.053-1.92-0.237-3.077-0.55-3.47-0.32-0.4-0.62-0.667-0.9-0.8v0c0 5.667-0.097 8.89-0.29 9.67v0c-0.227 0.653-0.78 1.117-1.66 1.39v0c0.98 0.34 1.533 0.757 1.66 1.25v0c0.193 0.78 0.29 3.637 0.29 8.57zM129.59-0.29v0c-0.833 0.52-1.777 0.78-2.83 0.78-1.06 0-2.003-0.26-2.83-0.78v0c-0.833 0.52-1.603 0.78-2.31 0.78-0.707 0-1.29-0.06-1.75-0.18-0.453-0.127-0.85-0.297-1.19-0.51v0c-0.7-0.42-1.05-0.947-1.05-1.58v0c0-0.327 0.09-0.613 0.27-0.86v0c0.353 0.28 0.807 0.42 1.36 0.42v0c1.453 0 2.457-0.62 3.01-1.86v0-11.94c0-0.747-0.157-1.3-0.47-1.66v0c-0.487-0.6-1.323-1.193-2.51-1.78v0c1.107-0.5 1.823-0.947 2.15-1.34v0c0.553-0.633 0.83-1.35 0.83-2.15v0-10.3c-0.553-1.253-1.557-1.88-3.01-1.88v0c-0.553 0-1.007 0.137-1.36 0.41v0c-0.18-0.24-0.27-0.52-0.27-0.84 0-0.32 0.093-0.617 0.28-0.89 0.187-0.28 0.443-0.517 0.77-0.71v0c0.747-0.453 1.603-0.68 2.57-0.68 0.973 0 1.867 0.267 2.68 0.8v0c0.847-0.533 1.79-0.8 2.83-0.8 1.04 0 1.983 0.267 2.83 0.8v0c0.813-0.533 1.577-0.8 2.29-0.8 0.72 0 1.307 0.06 1.76 0.18 0.46 0.12 0.86 0.287 1.2 0.5v0c0.7 0.427 1.05 0.957 1.05 1.59v0c0 0.327-0.09 0.61-0.27 0.85v0c-0.36-0.273-0.817-0.41-1.37-0.41v0c-1.447 0-2.447 0.627-3 1.88v0 10.3c0 0.8 0.17 1.393 0.51 1.78v0c0.54 0.64 1.363 1.21 2.47 1.71v0c-1.187 0.587-1.943 1.067-2.27 1.44v0c-0.473 0.587-0.71 1.253-0.71 2v0 11.94c0.553 1.24 1.553 1.86 3 1.86v0c0.553 0 1.01-0.14 1.37-0.42v0c0.18 0.247 0.27 0.53 0.27 0.85 0 0.313-0.093 0.61-0.28 0.89-0.187 0.273-0.443 0.507-0.77 0.7v0c-0.747 0.46-1.6 0.69-2.56 0.69-0.967 0-1.863-0.26-2.69-0.78zM124.61-9.64v3.17c0.813-0.307 1.26-1.373 1.34-3.2v0c0.1-1.82 0.15-4.343 0.15-7.57 0-3.22-0.003-5.363-0.01-6.43-0.013-1.067-0.027-1.927-0.04-2.58v0c-0.047-1.92-0.23-3.077-0.55-3.47-0.32-0.4-0.617-0.667-0.89-0.8v0c0 5.667-0.097 8.89-0.29 9.67v0c-0.233 0.653-0.787 1.117-1.66 1.39v0c0.973 0.34 1.527 0.757 1.66 1.25v0c0.193 0.78 0.29 3.637 0.29 8.57zM162.96-4.22c0.653-0.553 1.17-1.27 1.55-2.15 0.387-0.88 0.58-1.803 0.58-2.77 0-0.973-0.187-1.727-0.56-2.26v0c0.26-0.453 0.803-0.68 1.63-0.68 0.833 0 1.473 0.267 1.92 0.8 0.447 0.54 0.67 1.367 0.67 2.48 0 1.113-0.297 2.27-0.89 3.47-0.593 1.193-1.427 2.237-2.5 3.13v0c-2.38 1.953-5.35 2.93-8.91 2.93v0c-4.253 0-7.747-1.333-10.48-4v0c-2.78-2.733-4.457-6.633-5.03-11.7v0c-0.273-2.307-1.103-3.803-2.49-4.49v0c0.767-0.36 1.297-0.733 1.59-1.12v0c0.473-0.667 0.777-1.573 0.91-2.72 0.14-1.147 0.407-2.34 0.8-3.58 0.387-1.24 0.903-2.417 1.55-3.53 0.64-1.113 1.41-2.137 2.31-3.07 0.893-0.94 1.917-1.75 3.07-2.43v0c2.44-1.453 5.29-2.18 8.55-2.18v0c3.173 0 5.8 0.8 7.88 2.4v0c1.873 1.447 3.087 3.413 3.64 5.9v0c0.26 1.24 0.593 2.007 1 2.3v0c0.167 0.133 0.37 0.257 0.61 0.37v0c-0.487 0.813-1.227 1.26-2.22 1.34v0c-0.44 0.067-0.913-0.023-1.42-0.27v0c-0.893 1.533-2.153 2.347-3.78 2.44v0c-0.34 0.033-0.6-0.03-0.78-0.19v0c0.44-0.587 0.643-1.27 0.61-2.05v0c0-0.147-0.023-0.293-0.07-0.44v0c-0.753 0.147-1.39 0.08-1.91-0.2v0c-0.847-0.487-1.287-1.017-1.32-1.59v0c0-0.127 0.027-0.257 0.08-0.39v0c1.007 0.293 1.967 0.067 2.88-0.68v0c0.613-0.507 0.907-1.077 0.88-1.71-0.033-0.633-0.18-1.187-0.44-1.66-0.26-0.473-0.637-0.897-1.13-1.27v0c-1.107-0.88-2.49-1.32-4.15-1.32v0c-2.833 0-4.67 1.27-5.51 3.81v0c-0.28 0.847-0.42 1.84-0.42 2.98v0 4.93c0 1.84 0.897 3.15 2.69 3.93v0c-1.793 0.867-2.69 2.277-2.69 4.23v0 6.03c0 3.087 1.23 5.127 3.69 6.12v0c0.793 0.313 1.67 0.47 2.63 0.47 0.96 0 1.87-0.13 2.73-0.39 0.853-0.26 1.603-0.667 2.25-1.22zM146.48-6.47v0c0.247-0.1 0.37-0.27 0.37-0.51v0c0-0.36-0.17-0.923-0.51-1.69v0c-0.867-1.967-1.3-5.563-1.3-10.79v0c0-3.807 0.457-7.043 1.37-9.71v0c0.113-0.413 0.17-0.723 0.17-0.93 0-0.213-0.107-0.353-0.32-0.42v0c-0.76 0.96-1.303 1.913-1.63 2.86v0c-0.6 1.727-1.08 4.063-1.44 7.01v0c-0.047 0.42-0.527 0.817-1.44 1.19v0c0.913 0.407 1.393 0.823 1.44 1.25v0c0.587 5.047 1.333 8.413 2.24 10.1v0c0.313 0.607 0.663 1.153 1.05 1.64zM183.74-0.29v0c-0.827 0.52-1.77 0.78-2.83 0.78-1.06 0-2.003-0.26-2.83-0.78v0c-0.833 0.52-1.603 0.78-2.31 0.78-0.707 0-1.29-0.06-1.75-0.18-0.453-0.127-0.85-0.297-1.19-0.51v0c-0.7-0.42-1.05-0.947-1.05-1.58v0c0-0.327 0.09-0.613 0.27-0.86v0c0.353 0.28 0.807 0.42 1.36 0.42v0c1.453 0 2.457-0.62 3.01-1.86v0-11.94c0-0.747-0.157-1.3-0.47-1.66v0c-0.487-0.6-1.323-1.193-2.51-1.78v0c1.107-0.5 1.823-0.947 2.15-1.34v0c0.553-0.633 0.83-1.35 0.83-2.15v0-10.3c-0.553-1.253-1.557-1.88-3.01-1.88v0c-0.553 0-1.007 0.137-1.36 0.41v0c-0.18-0.24-0.27-0.52-0.27-0.84 0-0.32 0.093-0.617 0.28-0.89 0.187-0.28 0.443-0.517 0.77-0.71v0c0.747-0.453 1.603-0.68 2.57-0.68 0.973 0 1.867 0.267 2.68 0.8v0c0.847-0.533 1.79-0.8 2.83-0.8 1.04 0 1.983 0.267 2.83 0.8v0c0.813-0.533 1.58-0.8 2.3-0.8 0.713 0 1.297 0.06 1.75 0.18 0.46 0.12 0.86 0.287 1.2 0.5v0c0.7 0.427 1.05 0.957 1.05 1.59v0c0 0.327-0.09 0.61-0.27 0.85v0c-0.36-0.273-0.817-0.41-1.37-0.41v0c-1.447 0-2.447 0.627-3 1.88v0 10.3c0 0.8 0.17 1.393 0.51 1.78v0c0.54 0.64 1.363 1.21 2.47 1.71v0c-1.187 0.587-1.943 1.067-2.27 1.44v0c-0.473 0.587-0.71 1.253-0.71 2v0 11.94c0.553 1.24 1.553 1.86 3 1.86v0c0.553 0 1.01-0.14 1.37-0.42v0c0.18 0.247 0.27 0.53 0.27 0.85 0 0.313-0.093 0.61-0.28 0.89-0.187 0.273-0.443 0.507-0.77 0.7v0c-0.747 0.46-1.6 0.69-2.56 0.69-0.96 0-1.857-0.26-2.69-0.78zM178.76-9.64v3.17c0.813-0.307 1.26-1.373 1.34-3.2v0c0.1-1.82 0.15-4.343 0.15-7.57 0-3.22-0.003-5.363-0.01-6.43-0.013-1.067-0.027-1.927-0.04-2.58v0c-0.047-1.92-0.23-3.077-0.55-3.47-0.32-0.4-0.617-0.667-0.89-0.8v0c0 5.667-0.097 8.89-0.29 9.67v0c-0.227 0.653-0.78 1.117-1.66 1.39v0c0.973 0.34 1.527 0.757 1.66 1.25v0c0.193 0.78 0.29 3.637 0.29 8.57zM194.78-0.17v0c-0.607 0.44-1.297 0.66-2.07 0.66-0.773 0-1.39-0.2-1.85-0.6-0.467-0.4-0.7-0.86-0.7-1.38 0-0.52 0.083-0.903 0.25-1.15v0c0.467 0.28 1.047 0.42 1.74 0.42 0.693 0 1.213-0.093 1.56-0.28 0.353-0.187 0.693-0.443 1.02-0.77v0l3.46-10.28 0.49-1.68c0.147-0.507 0.22-0.973 0.22-1.4v0c0-1.48-0.7-2.423-2.1-2.83v0c1.287-0.487 2.19-1.013 2.71-1.58v0c0.813-0.9 1.457-2.08 1.93-3.54v0l2.69-9.01c-0.527-0.7-1.147-1.05-1.86-1.05-0.713 0-1.38 0.153-2 0.46v0c-0.167-0.293-0.25-0.623-0.25-0.99 0-0.367 0.08-0.713 0.24-1.04 0.153-0.32 0.367-0.603 0.64-0.85v0c0.62-0.52 1.5-0.78 2.64-0.78 1.14 0 2.11 0.34 2.91 1.02v0c0.813-0.68 1.823-1.02 3.03-1.02 1.213 0 2.18 0.323 2.9 0.97v0c1.04-0.647 2.097-0.97 3.17-0.97 1.073 0 1.907 0.203 2.5 0.61 0.6 0.407 0.9 0.96 0.9 1.66v0c0 0.327-0.1 0.61-0.3 0.85v0c-0.373-0.273-0.813-0.41-1.32-0.41v0c-1.087 0-1.793 0.74-2.12 2.22v0l3.12 9.99c0.393 1.253 1.37 2.227 2.93 2.92v0c0.44 0.2 0.89 0.38 1.35 0.54v0c-1.627 0.54-2.44 1.347-2.44 2.42v0c0 0.407 0.063 0.763 0.19 1.07v0l4.66 12.5c0.72 0.753 1.447 1.13 2.18 1.13 0.733 0 1.303-0.14 1.71-0.42v0c0.173 0.133 0.26 0.377 0.26 0.73 0 0.36-0.057 0.69-0.17 0.99-0.113 0.3-0.29 0.567-0.53 0.8v0c-0.52 0.487-1.287 0.73-2.3 0.73-1.007 0-1.883-0.277-2.63-0.83v0c-0.847 0.553-1.803 0.83-2.87 0.83-1.067 0-1.983-0.27-2.75-0.81v0c-0.733 0.54-1.597 0.81-2.59 0.81-0.993 0-1.813-0.207-2.46-0.62-0.653-0.42-0.997-1.01-1.03-1.77v0c0-0.46 0.09-0.747 0.27-0.86v0c0.44 0.28 0.887 0.42 1.34 0.42v0c0.96 0 1.637-0.197 2.03-0.59v0l-1.86-6.23h-13.2l-1.62 5.4c0.667 1.027 1.477 1.54 2.43 1.54 0.953 0 1.667-0.14 2.14-0.42v0c0.18 0.293 0.27 0.697 0.27 1.21 0 0.513-0.253 0.96-0.76 1.34-0.507 0.387-1.157 0.58-1.95 0.58-0.8 0-1.533-0.203-2.2-0.61v0c-0.587 0.407-1.257 0.61-2.01 0.61-0.76 0-1.407-0.22-1.94-0.66zM201.39-12.45h11.23l-5.66-18.82zM216.02-10.03l1.27 3.56c0.287 0 0.43-0.327 0.43-0.98v0c0-1.14-0.17-2.247-0.51-3.32v0l-0.93-2.85c-0.647-2.153-0.97-3.507-0.97-4.06v0c-0.02-0.907 0.377-1.507 1.19-1.8v0c-1.12-0.227-1.803-0.577-2.05-1.05v0c-0.113-0.2-0.207-0.357-0.28-0.47-0.073-0.113-0.147-0.247-0.22-0.4-0.073-0.153-0.157-0.353-0.25-0.6-0.1-0.24-0.23-0.59-0.39-1.05v0l-1.52-4.56c-0.36-1.14-0.887-2.003-1.58-2.59v0c-0.213-0.18-0.41-0.287-0.59-0.32v0c1.087 3.94 1.803 6.463 2.15 7.57v0c2.36 7.26 3.777 11.567 4.25 12.92zM224.54-4.13l-0.05-0.14z" data-fill-palette-color="primary" fill="#ffffff" opacity="1"></path></g></svg></g></svg></g></svg></g></svg></g><g transform="matrix(1,0,0,1,411.7565667884488,0)"><svg viewBox="0 0 97.8090037252241 102.25486753091612" height="102.25486753091612" width="97.8090037252241"><g><svg xmlns="http://www.w3.org/2000/svg" xmlns:xlink="http://www.w3.org/1999/xlink" version="1.1" x="0" y="0" viewBox="2 1 44 46" enable-background="new 0 0 48 48" xml:space="preserve" height="102.25486753091612" width="97.8090037252241" class="icon-icon-0" data-fill-palette-color="accent" id="icon-0"><path fill-rule="evenodd" clip-rule="evenodd" d="M41 47L41 47H7l0 0c-2.762 0-5-2.238-5-5V2c0-0.552 0.447-1 1-1l0 0h34l0 0c0.414 0 0.77 0.252 0.922 0.611C37.972 1.73 38 1.862 38 2v0 14h7c0.553 0 1 0.448 1 1v25C46 44.762 43.762 47 41 47zM36 42V3H4v39l0 0 0 0c0 1.657 1.344 3 3 3h30.022C36.39 44.162 36 43.131 36 42zM44 18h-6v24c0 1.657 1.343 3 3 3s3-1.343 3-3V18zM7 40c0-0.552 0.447-1 1-1h9c0.553 0 1 0.448 1 1 0 0.553-0.447 1-1 1H8C7.447 41 7 40.553 7 40zM11.666 23.715c-0.381 0.381-0.999 0.381-1.381 0-0.381-0.381-0.381-1 0-1.381l5.905-5.905c0.032-0.047 0.053-0.101 0.095-0.143 0.197-0.197 0.457-0.288 0.715-0.282 0.258-0.006 0.518 0.084 0.715 0.282 0.042 0.042 0.062 0.096 0.095 0.143l4.19 4.19 2.19-2.19c0.032-0.047 0.053-0.101 0.095-0.143 0.197-0.197 0.457-0.288 0.715-0.281 0.258-0.007 0.518 0.084 0.715 0.281 0.042 0.042 0.062 0.096 0.095 0.143l3.905 3.905c0.381 0.381 0.381 1 0 1.381-0.382 0.381-1 0.381-1.381 0L25 20.381 23.381 22l0.334 0.334c0.381 0.381 0.381 1 0 1.381s-1 0.381-1.381 0L17 18.381 11.666 23.715zM23 29h9c0.553 0 1 0.448 1 1 0 0.553-0.447 1-1 1h-9c-0.553 0-1-0.447-1-1C22 29.448 22.447 29 23 29zM23 34h9c0.553 0 1 0.448 1 1 0 0.553-0.447 1-1 1h-9c-0.553 0-1-0.447-1-1C22 34.448 22.447 34 23 34zM23 39h9c0.553 0 1 0.448 1 1 0 0.553-0.447 1-1 1h-9c-0.553 0-1-0.447-1-1C22 39.448 22.447 39 23 39zM24 15.5c0 0.829-0.672 1.5-1.5 1.5S21 16.329 21 15.5s0.672-1.5 1.5-1.5S24 14.671 24 15.5zM27 10H13c-0.553 0-1-0.448-1-1s0.447-1 1-1h14c0.553 0 1 0.448 1 1S27.553 10 27 10zM8 34h9c0.553 0 1 0.448 1 1 0 0.553-0.447 1-1 1H8c-0.553 0-1-0.447-1-1C7 34.448 7.447 34 8 34zM18 30c0 0.553-0.447 1-1 1H8c-0.553 0-1-0.447-1-1 0-0.552 0.447-1 1-1h9C17.553 29 18 29.448 18 30z" fill="#ffffff" data-fill-palette-color="accent"></path></svg></g></svg></g></svg></g></svg><rect width="395.52" height="79.36926579450432" fill="none" stroke="none" visibility="hidden"></rect></g></svg></g></svg>